<?xml version="1.0" encoding="utf-8"?>
<!-- Generator: Adobe Illustrator 25.2.3, SVG Export Plug-In . SVG Version: 6.00 Build 0)  -->
<svg version="1.1" id="Layer_1" xmlns="http://www.w3.org/2000/svg" xmlns:xlink="http://www.w3.org/1999/xlink" x="0px" y="0px"
	 width="240px" height="240px" viewBox="0 0 240 240" style="enable-background:new 0 0 240 240;" xml:space="preserve">
<style type="text/css">
	.st0{fill:#62CCDD;}
	.st1{fill:none;}
	.st2{fill:#FFFFFF;}
</style>
<rect y="0" class="st0" width="240" height="240"/>
<path class="st1" d="M0,0h240v240H0V0z"/>
<path class="st2" d="M120,20c-38.5,0-70,31.5-70,70c0,52.5,70,130,70,130s70-77.5,70-130C190,51.5,158.5,20,120,20z"/>
<circle class="st0" cx="91" cy="78.5" r="9.5"/>
<circle class="st0" cx="108.5" cy="63" r="9.5"/>
<circle class="st0" cx="131.5" cy="63" r="9.5"/>
<circle class="st0" cx="148.5" cy="78.5" r="9.5"/>
<path class="st0" d="M140.5,99c-3.5-4-6-7-9.5-11c-2-2-4-4-6.5-5c-0.5,0-1-0.5-1.5-0.5c-1,0-2,0-3,0s-2,0-3,0c-0.5,0-1,0-1.5,0.5
	c-2.5,1-5,3-6.5,5c-3.5,4-6,7-9.5,11c-5,5-11,10.5-10,18.5c1,4,4,8,9,9c3,0.5,11.5-1.5,21-1.5h0.5c9.5,0,18.5,2,21,1.5c5-1,8-5,9-9
	C151.5,109.5,145.5,104,140.5,99z"/>
</svg>
